<svg xmlns="http://www.w3.org/2000/svg" viewBox="0 0 64 64" role="img" aria-hidden="true">
  <defs>
    <linearGradient id="gf-gradient" x1="8" y1="8" x2="56" y2="56" gradientUnits="userSpaceOnUse">
      <stop offset="0" stop-color="#9c27b0"/>
      <stop offset="0.5" stop-color="#ff7043"/>
      <stop offset="1" stop-color="#43a047"/>
    </linearGradient>
  </defs>
  <path fill="url(#gf-gradient)" d="M32 58c-1.5 0-3-.55-4.15-1.68L10.3 38.6c-6.55-6.37-6.55-16.74 0-23.1 6.36-6.19 16.69-6.19 23.05 0l-1.35 1.32c-5.61-5.46-14.74-5.46-20.35 0-5.33 5.18-5.33 13.61 0 18.79l17.55 17.2c1.54 1.51 4.05 1.51 5.6 0l17.55-17.2c5.33-5.18 5.33-13.61 0-18.79-5.61-5.46-14.74-5.46-20.35 0l-1.35-1.32c6.36-6.19 16.69-6.19 23.05 0 6.55 6.37 6.55 16.74 0 23.1L36.15 56.32C35 57.45 33.5 58 32 58z"/>
</svg>
