<svg xmlns="http://www.w3.org/2000/svg" viewBox="0 0 64 64" role="img" aria-hidden="true">
  <defs>
    <linearGradient id="withings-gradient" x1="10" y1="12" x2="54" y2="52" gradientUnits="userSpaceOnUse">
      <stop offset="0" stop-color="#00c0c7"/>
      <stop offset="1" stop-color="#0077a7"/>
    </linearGradient>
  </defs>
  <path fill="url(#withings-gradient)" d="M12 18c6.9-4.2 14.8-4.2 24.1 2.2 5.2 3.5 9.3 4.5 12.8 3.5 3.4-0.9 6-3.5 7.6-7.7l3.5 1.4c-2.1 5.7-5.7 9.5-10.5 10.8-4.6 1.2-9.7 0-15.7-4-7.5-5-13-5.3-18.1-2.2-4 2.4-6.9 6.7-8.9 12.8l-3.7-1.2C6.4 27 8.7 21.3 12 18zm5.3 17.9c5.6-3.3 12.1-2.3 20.3 3.2 5.6 3.8 10.3 4.7 14.4 3.6 4.1-1.1 7.3-4.3 9.7-9.5l3.4 1.7c-2.9 6.1-7.3 10.1-12.9 11.6-5.5 1.5-11.5 0.3-18.5-4.4-6.8-4.6-11.9-5.5-16.3-3-3.9 2.3-6.6 6.7-8.3 13.1l-3.6-1.4c2.1-7.4 5.4-12.4 9.8-15.1z"/>
</svg>
